<svg id="Layer_1" data-name="Layer 1" xmlns="http://www.w3.org/2000/svg" viewBox="0 0 173.29 196.58"><path d="M69.45,151.55l-20.14,61H23.41L89.22,18.87a.46.46,0,0,1,.33-.32,54.39,54.39,0,0,1,29.72,0,.46.46,0,0,1,.33.32q33,96.84,66.1,193.68H158.94l-20.72-61Zm63.84-19-19.16-56.3c-4.35-12.77-7.25-24.38-10.16-35.7h-.58C100.49,52.16,97.3,64.06,93.52,76L74.37,132.55Z" transform="translate(-17.11 -16.48)"/><path d="M131.31,43a5.09,5.09,0,0,0,2.08,2.62c20.92,13.57,31.13,41.57,31.13,68.7a118.49,118.49,0,0,1-1.59,19.46,4.93,4.93,0,0,0,.19,2.44l11.81,34.6a1,1,0,0,0,1.81.18c8.64-15.27,13.66-34.6,13.66-57.8,0-48.77-25.16-85.06-65.57-93.87a1,1,0,0,0-1.15,1.31Z" transform="translate(-17.11 -16.48)"/><path d="M45,138.87a5,5,0,0,0,.17-2.54,107.34,107.34,0,0,1-1.87-20.05c0-30.38,10.79-58.51,32.36-71.5a5.07,5.07,0,0,0,2.23-2.72l7.14-21a1,1,0,0,0-1.17-1.3c-39.47,9.51-66.72,45.72-66.72,97.09,0,22,5.17,41.26,14.36,56.66.6,1,1.43.91,1.8-.2Z" transform="translate(-17.11 -16.48)"/><path d="M144.21,177.46a1,1,0,0,0-1.67-.37,53,53,0,0,1-38.79,16A52.84,52.84,0,0,1,65.33,177.2a1,1,0,0,0-1.66.39l-7.09,21.46a1,1,0,0,0,.4,1.17c12.84,8.28,28.23,12.83,45.37,12.83,17.84,0,34.5-4.71,48.43-13.92a1,1,0,0,0,.39-1.17Z" transform="translate(-17.11 -16.48)"/></svg>